<?xml version="1.0" encoding="UTF-8"?> <svg xmlns="http://www.w3.org/2000/svg" width="40" height="40" viewBox="0 0 40 40" fill="none"> <g clip-path="url(#clip0_204_2512)"> <path fill-rule="evenodd" clip-rule="evenodd" d="M20 0.5C30.7696 0.5 39.5 9.23045 39.5 20C39.5 30.7696 30.7696 39.5 20 39.5C9.23045 39.5 0.5 30.7696 0.5 20C0.5 9.23045 9.23045 0.5 20 0.5ZM10 13C9.44772 13 9 13.4477 9 14C9 14.5523 9.44772 15 10 15H30C30.5523 15 31 14.5523 31 14C31 13.4477 30.5523 13 30 13H10ZM9 20C9 19.4477 9.44772 19 10 19H30C30.5523 19 31 19.4477 31 20C31 20.5523 30.5523 21 30 21H10C9.44772 21 9 20.5523 9 20ZM10 25C9.44772 25 9 25.4477 9 26C9 26.5523 9.44772 27 10 27H30C30.5523 27 31 26.5523 31 26C31 25.4477 30.5523 25 30 25H10Z" fill="#1AB5F8"></path> </g> <defs> <clipPath id="clip0_204_2512"> <rect width="40" height="40" fill="white"></rect> </clipPath> </defs> </svg> 