<?xml version="1.0" encoding="UTF-8"?> <svg xmlns="http://www.w3.org/2000/svg" width="48" height="48" viewBox="0 0 48 48" fill="none"> <g clip-path="url(#clip0_101_26)"> <path d="M48 24C48 10.7452 37.2548 0 24 0C10.7452 0 0 10.7452 0 24C0 37.2548 10.7452 48 24 48C37.2548 48 48 37.2548 48 24Z" fill="#EDF9FF"></path> <path fill-rule="evenodd" clip-rule="evenodd" d="M29.7598 32.64H18.2398C17.179 32.64 16.3198 31.7808 16.3198 30.72V20.64C16.3198 19.8451 16.9649 19.2 17.7598 19.2H30.2398C31.0347 19.2 31.6798 19.8451 31.6798 20.64V30.72C31.6798 31.7808 30.8206 32.64 29.7598 32.64Z" stroke="#051E29" stroke-width="1.5" stroke-linecap="round" stroke-linejoin="round"></path> <path d="M27.8389 22.3679C27.7064 22.3679 27.5989 22.4754 27.5999 22.6079C27.5999 22.7404 27.7074 22.8479 27.8399 22.8479C27.9723 22.8479 28.0799 22.7404 28.0799 22.6079C28.0799 22.4754 27.9723 22.3679 27.8389 22.3679" stroke="#051E29" stroke-width="1.5" stroke-linecap="round" stroke-linejoin="round"></path> <path d="M20.1587 22.3679C20.0263 22.3679 19.9187 22.4754 19.9197 22.6079C19.9197 22.7404 20.0272 22.8479 20.1597 22.8479C20.2922 22.8479 20.3997 22.7404 20.3997 22.6079C20.3997 22.4754 20.2922 22.3679 20.1587 22.3679" stroke="#051E29" stroke-width="1.5" stroke-linecap="round" stroke-linejoin="round"></path> <path d="M20.1597 19.2V18.96V18.96C20.1597 16.9718 21.7715 15.36 23.7597 15.36H24.2397C26.2278 15.36 27.8397 16.9718 27.8397 18.96V18.96V19.2" stroke="#051E29" stroke-width="1.5" stroke-linecap="round" stroke-linejoin="round"></path> </g> <defs> <clipPath id="clip0_101_26"> <rect width="48" height="48" fill="white"></rect> </clipPath> </defs> </svg> 