<?xml version="1.0" encoding="UTF-8"?> <svg xmlns="http://www.w3.org/2000/svg" width="48" height="48" viewBox="0 0 48 48" fill="none"> <g clip-path="url(#clip0_101_32)"> <path d="M48 24C48 10.7452 37.2548 0 24 0C10.7452 0 0 10.7452 0 24C0 37.2548 10.7452 48 24 48C37.2548 48 48 37.2548 48 24Z" fill="#EDF9FF"></path> <path fill-rule="evenodd" clip-rule="evenodd" d="M27.696 16C30.871 16 33 18.98 33 21.755C33 27.388 24.161 32 24 32C23.839 32 15 27.388 15 21.755C15 18.98 17.129 16 20.304 16C22.119 16 23.311 16.905 24 17.711C24.689 16.905 25.881 16 27.696 16Z" stroke="#051E29" stroke-width="1.5" stroke-linecap="round" stroke-linejoin="round"></path> </g> <defs> <clipPath id="clip0_101_32"> <rect width="48" height="48" fill="white"></rect> </clipPath> </defs> </svg> 