<?xml version="1.0" encoding="UTF-8"?> <svg xmlns="http://www.w3.org/2000/svg" width="145" height="485" viewBox="0 0 145 485" fill="none"> <path fill-rule="evenodd" clip-rule="evenodd" d="M115.384 484.743H29.8699L47.5918 192.921H97.6617L115.384 484.743Z" fill="url(#paint0_linear_9_602)"></path> <path fill-rule="evenodd" clip-rule="evenodd" d="M72.6576 216.611C41.97 216.611 21.9938 205.002 11.1631 189.613C0.253671 174.112 -2.18175 153.677 4.24867 134.292C13.8759 105.27 32.4314 69.4113 48.8157 40.4951C56.9679 26.1077 64.5088 13.5665 70.0105 4.62425C70.9557 3.08792 71.8405 1.65827 72.6576 0.344148C73.4746 1.65827 74.3594 3.08792 75.3046 4.62425C80.8063 13.5665 88.3472 26.1077 96.4994 40.4951C112.884 69.4113 131.439 105.27 141.066 134.292C147.497 153.677 145.061 174.112 134.152 189.613C123.321 205.002 103.345 216.611 72.6576 216.611Z" fill="url(#paint1_linear_9_602)"></path> <defs> <linearGradient id="paint0_linear_9_602" x1="72.627" y1="192.921" x2="72.627" y2="384.981" gradientUnits="userSpaceOnUse"> <stop stop-color="#2CAC69"></stop> <stop offset="1" stop-color="#3AD4DB"></stop> </linearGradient> <linearGradient id="paint1_linear_9_602" x1="65.9494" y1="-9.35056" x2="72.2917" y2="216.611" gradientUnits="userSpaceOnUse"> <stop stop-color="#1AB5F8"></stop> <stop offset="1" stop-color="#051E29"></stop> </linearGradient> </defs> </svg> 