<?xml version="1.0" encoding="UTF-8"?> <svg xmlns="http://www.w3.org/2000/svg" width="273" height="159" viewBox="0 0 273 159" fill="none"> <g clip-path="url(#clip0_95_162)"> <path d="M272.26 0H0.129883V158.74H272.26V0Z" fill="white"></path> <path d="M152 77H13V159H152V77Z" fill="url(#paint0_linear_95_162)"></path> <path d="M105.691 130.301L101.42 126.098L131.296 96.6985L135.568 100.939L105.691 130.289V130.301ZM128.457 131C126.898 131 125.465 130.626 124.16 129.877C122.879 129.117 121.853 128.106 121.079 126.846C120.306 125.574 119.913 124.152 119.913 122.605C119.913 121.059 120.306 119.687 121.105 118.402C121.891 117.13 122.943 116.107 124.236 115.346C125.529 114.585 126.936 114.198 128.457 114.198C129.978 114.198 131.448 114.585 132.754 115.346C134.047 116.094 135.073 117.105 135.834 118.377C136.607 119.637 137 121.046 137 122.605C137 124.165 136.607 125.574 135.834 126.846C135.073 128.106 134.047 129.117 132.754 129.877C131.461 130.626 130.028 131 128.457 131ZM128.457 125.636C129.014 125.636 129.521 125.499 129.978 125.212C130.447 124.938 130.827 124.564 131.119 124.115C131.397 123.653 131.55 123.142 131.55 122.593C131.55 122.044 131.41 121.545 131.119 121.096C130.84 120.635 130.459 120.261 129.978 119.974C129.521 119.699 129.014 119.55 128.457 119.55C127.899 119.55 127.392 119.687 126.91 119.974C126.454 120.248 126.086 120.622 125.795 121.096C125.516 121.545 125.364 122.044 125.364 122.593C125.364 123.142 125.503 123.641 125.795 124.115C126.074 124.564 126.454 124.926 126.91 125.212C127.379 125.487 127.899 125.636 128.457 125.636ZM108.543 112.801C106.984 112.801 105.552 112.427 104.246 111.679C102.953 110.918 101.914 109.908 101.141 108.648C100.38 107.376 100 105.954 100 104.407C100 102.86 100.393 101.488 101.191 100.203C101.977 98.9312 103.029 97.9084 104.322 97.1475C105.615 96.3867 107.022 96 108.543 96C110.064 96 111.535 96.3867 112.815 97.1475C114.108 97.8959 115.147 98.9063 115.921 100.179C116.694 101.438 117.087 102.848 117.087 104.407C117.087 105.966 116.694 107.376 115.921 108.648C115.147 109.908 114.108 110.918 112.815 111.679C111.535 112.427 110.115 112.801 108.543 112.801ZM108.543 107.438C109.101 107.438 109.608 107.301 110.064 107.014C110.533 106.739 110.914 106.365 111.205 105.916C111.484 105.455 111.636 104.943 111.636 104.395C111.636 103.846 111.497 103.347 111.205 102.898C110.926 102.436 110.546 102.062 110.064 101.775C109.608 101.501 109.101 101.351 108.543 101.351C107.986 101.351 107.479 101.488 106.997 101.775C106.541 102.05 106.173 102.424 105.881 102.898C105.603 103.347 105.45 103.846 105.45 104.395C105.45 104.943 105.59 105.442 105.881 105.916C106.16 106.365 106.541 106.727 106.997 107.014C107.466 107.288 107.986 107.438 108.543 107.438Z" fill="white"></path> <path d="M83.5 131C80.9975 131 78.8203 130.476 76.9434 129.441C75.0666 128.393 73.6151 126.946 72.5641 125.075C71.513 123.204 71 121.034 71 118.539V108.461C71 105.966 71.5255 103.796 72.5641 101.925C73.6151 100.054 75.0666 98.6069 76.9434 97.5592C78.8203 96.5114 80.9975 96 83.5 96C86.0025 96 88.1797 96.5239 90.0566 97.5592C91.9334 98.6069 93.3849 100.054 94.4359 101.925C95.487 103.796 96 105.966 96 108.461V118.539C96 121.034 95.4745 123.204 94.4359 125.075C93.3849 126.946 91.9334 128.393 90.0566 129.441C88.1797 130.489 86.0025 131 83.5 131ZM83.5 124.975C84.6261 124.975 85.6396 124.713 86.5405 124.177C87.4414 123.653 88.1672 122.93 88.6927 122.032C89.2182 121.134 89.4935 120.123 89.4935 119.001V107.937C89.4935 106.814 89.2307 105.804 88.6927 104.906C88.1672 104.008 87.4414 103.284 86.5405 102.761C85.6396 102.237 84.6261 101.962 83.5 101.962C82.3739 101.962 81.3604 102.224 80.4595 102.761C79.5586 103.284 78.8328 104.008 78.3073 104.906C77.7818 105.804 77.5065 106.814 77.5065 107.937V119.001C77.5065 120.123 77.7693 121.134 78.3073 122.032C78.8328 122.93 79.5586 123.653 80.4595 124.177C81.3604 124.701 82.3739 124.975 83.5 124.975Z" fill="white"></path> <path d="M45 129.975V124.517L58.7659 112.103C59.8014 111.174 60.5323 110.308 60.9587 109.491C61.3851 108.674 61.5922 107.907 61.5922 107.201C61.5922 106.186 61.3851 105.283 60.9831 104.491C60.5689 103.686 59.9963 103.067 59.2532 102.609C58.5101 102.151 57.6329 101.916 56.634 101.916C55.6351 101.916 54.6605 102.164 53.8565 102.659C53.0646 103.142 52.4555 103.773 52.0048 104.577C51.5662 105.369 51.3591 106.224 51.3957 107.152H45.0122C45.0122 104.862 45.5117 102.894 46.4984 101.223C47.4852 99.5522 48.8618 98.265 50.6282 97.3615C52.3946 96.4456 54.4412 96 56.7802 96C58.9243 96 60.8369 96.4827 62.518 97.4357C64.2235 98.3764 65.5514 99.7008 66.526 101.396C67.5005 103.092 67.9878 105.06 67.9878 107.3C67.9878 108.946 67.7564 110.32 67.3056 111.422C66.8549 112.499 66.1727 113.501 65.2834 114.43C64.3819 115.345 63.2855 116.373 61.982 117.536L53.089 125.458L52.5895 124.071H68V130H45.0244L45 129.975Z" fill="white"></path> <path d="M28 118V113H42V118H28Z" fill="white"></path> <path d="M323.784 -10C308.176 30.9525 251.695 59.6231 204.029 72.7994C161.536 84.5523 121.555 86.1143 97.5214 77.7248C103.536 77.0194 109.714 75.3188 115.767 72.686C126.854 67.8488 135.908 60.3411 139.976 52.594C144.271 44.4186 142.965 36.2306 136.41 30.1337C130.923 25.032 124.393 23.2558 117.499 25.0068C103.511 28.5591 90.4769 45.8043 82.88 61.2607C78.1461 48.2481 67.1964 34.4041 56.0836 28.9748C48.6624 25.3469 41.5929 25.687 36.1557 29.9448C28.5211 35.9283 26.2483 45.5145 30.2289 54.9748C33.343 62.3566 39.7721 68.6676 48.3485 72.749C53.748 75.3188 59.813 76.9186 66.3174 77.5107C44.8577 86.4419 13.7166 90.3973 -8.58452 82.625C-9.76487 82.2093 -10.895 81.7684 -12 81.2897V89.1124C-11.661 89.2384 -11.3219 89.3769 -10.9703 89.5029C-2.41908 92.4884 7.80225 94 18.8774 94C25.294 94 31.9994 93.4961 38.8304 92.4632C55.2799 89.9816 70.6621 84.7161 81.5364 77.9012C92.8125 85.7112 110.392 89.969 132.63 90.2587C154.881 90.5484 180.234 86.9457 205.938 79.8285C234.768 71.8546 261.263 60.2403 282.585 46.2074C306.406 30.5368 322.34 12.9516 330 -6.06977V-7.60659L323.772 -10H323.784ZM36.9092 52.1405C34.1718 45.6657 35.5279 39.6696 40.6134 35.6764C42.2584 34.3915 44.1419 33.7364 46.2515 33.7364C48.3611 33.7364 50.4832 34.3285 52.8941 35.5C64.1074 40.9922 75.9235 57.8595 77.7945 70.2296C55.7948 72.1822 41.2664 62.4574 36.9092 52.1153V52.1405ZM86.622 70.6076C92.8502 55.3149 106.374 35.3488 119.27 32.0736C123.79 30.9273 127.771 32.0485 131.475 35.4874C135.682 39.3924 136.36 43.8895 133.56 49.218C127.231 61.2859 105.244 72.5979 86.6345 70.6076H86.622Z" fill="url(#paint1_linear_95_162)"></path> <path d="M162.428 55.5333L155.529 57.4308L157.802 53.3987L155.87 52.2546L155.325 50.0642L150.903 51.2082L154.441 44.9299L152.427 43.744L148.848 50.0921L147.664 45.5577L145.419 46.1716V46.2274L143.65 45.1392L141.336 49.1015L139.486 42L137.24 42.6139L139.132 49.8549L135.145 47.511L134.056 49.4503L131.988 49.9805L133.09 54.459L126.871 50.7618L125.715 52.8267L132.042 56.5797L127.592 57.8075L128.164 59.97L127.062 61.8535L130.926 64.2253L124 66.1228L124.599 68.4248L131.661 66.4855L129.348 70.5874L131.239 71.7035L131.756 73.8242L136.125 72.6941L132.546 79.0562L134.56 80.2421L138.22 73.7545L139.418 78.3167L141.418 77.7726L143.405 79.0003L145.732 74.9962L147.569 82L149.814 81.3861L147.963 74.3125L151.896 76.6425L153.012 74.6613L155.148 74.1032L154.032 69.5689L160.156 73.1964L161.313 71.1315L155.121 67.4622L159.516 66.2483L158.931 64.03L160.061 62.1046L156.155 59.7189L163 57.8354L162.401 55.5333H162.428ZM155.679 52.4081L152.359 58.2958L145.922 60.0677L149.311 54.0544L155.679 52.4081ZM145.555 46.5344L147.229 52.9662L143.908 58.8539L142.194 52.2686L145.541 46.5344H145.555ZM134.369 49.7154L140.03 53.0638L141.704 59.4956L135.92 56.0635L134.369 49.7154ZM128.599 59.9561L134.913 58.226L140.533 61.5466L134.07 63.3185L128.599 59.9561ZM131.58 71.3687L134.845 65.5647L141.119 63.8486L137.785 69.7782L131.58 71.3826V71.3687ZM141.595 77.4098L139.867 70.7967L143.133 64.9927L144.902 71.7454L141.595 77.3959V77.4098ZM152.849 74.4241L147.106 71.0199L145.378 64.4206L151.243 67.8947L152.849 74.4241ZM158.7 64.03L152.304 65.7879L146.521 62.3697L153.066 60.5699L158.7 64.03Z" fill="#75C9EA"></path> <path fill-rule="evenodd" clip-rule="evenodd" d="M234.622 49.2217L210.153 27L200 58.5707L210.115 55.8445L204.189 74.2854L214.304 71.5591L208.378 90L243 80.6638L228.709 67.6754L238.824 64.9492L224.533 51.9608L234.648 49.2345L234.622 49.2217Z" fill="url(#paint2_linear_95_162)"></path> <path fill-rule="evenodd" clip-rule="evenodd" d="M172.5 9L171.391 10.1079L172.5 11.2159L173.609 10.1079L172.5 9ZM172.5 11.6253L170.379 13.7449L172.5 15.8644L174.621 13.7449L172.5 11.6253ZM171.391 34.8921L172.5 33.7841L173.609 34.8921L172.5 36L171.391 34.8921ZM172.5 29.0874L170.379 31.207L172.5 33.3265L174.621 31.207L172.5 29.0874ZM161.604 22.488L163.725 20.3684L165.846 22.488L163.725 24.6075L161.604 22.488ZM160.109 21.3559L159 22.4639L160.109 23.5718L161.218 22.4639L160.109 21.3559ZM183.782 22.4639L184.891 21.3559L186 22.4639L184.891 23.5718L183.782 22.4639ZM181.227 20.3443L179.105 22.4639L181.227 24.5834L183.348 22.4639L181.227 20.3443ZM181.54 27.8831H179.129L180.672 29.3765H184.698V30.9902H181.058L181.01 34.6994H179.395L179.467 30.4603L177.924 28.9188L177.876 31.5682H176.261L176.333 27.3533L175.513 26.5343C175.079 26.8715 174.597 27.1365 174.091 27.3292L172.548 28.8707L171.054 27.3773C170.644 27.2569 170.258 27.0642 169.896 26.8475L169.077 27.6664V31.7128H167.462V29.3042L165.943 30.8457V34.868H164.328V31.231L160.615 31.1829V29.5691L164.858 29.6414L166.401 28.0999L163.749 28.0517V26.438L167.968 26.5103L168.667 25.8118C168.257 25.306 167.944 24.7279 167.751 24.1017L166.28 22.6325L167.799 21.1151C167.968 20.6574 168.185 20.2239 168.45 19.8145L167.823 19.1641L163.629 19.2123V17.5986L166.256 17.5745L164.713 16.033L160.495 16.0812V14.4674L164.183 14.4193V10.7823H165.798V14.8046L167.293 16.3461V13.9376H168.908V17.9839L169.583 18.6583C169.993 18.3693 170.451 18.1285 170.933 17.9599L172.548 16.3461L174.236 18.0321C174.67 18.2007 175.079 18.4175 175.465 18.7065L176.212 17.9839L176.164 13.793H177.779L177.804 16.4184L179.346 14.8769L179.298 10.6619H180.913L180.962 14.347H184.602V15.9607H180.576L179.033 17.4541H181.444V19.0678H177.394L176.598 19.8626C176.839 20.1998 177.008 20.537 177.153 20.9224L178.84 22.6084L177.201 24.2462C177.056 24.6316 176.887 25.017 176.671 25.3542L177.587 26.2694H181.637V27.8831H181.54ZM174.525 22.6084L175.586 21.5486C175.272 20.6093 174.525 19.8626 173.585 19.5254L172.524 20.5852L174.549 22.6084H174.525ZM172.404 24.7279L170.379 22.7047L169.318 23.7645C169.655 24.7038 170.403 25.4264 171.343 25.7636L172.404 24.7038V24.7279ZM172.5 20.5852L171.391 19.4773C170.451 19.7904 169.679 20.5129 169.318 21.4282L170.475 22.5843L172.5 20.5852ZM172.596 24.7279L173.633 25.7636C174.549 25.4023 175.272 24.6557 175.586 23.6922L174.597 22.7047L172.572 24.7279H172.596Z" fill="#75C9EA"></path> <path d="M262.305 91.6173L258.118 93.6674L259.086 90.8519L257.655 90.3599L256.195 94.6105L255.936 94.7335C255.364 93.9271 254.614 93.2984 253.755 92.8747L254.014 92.123L256.045 91.4123L255.541 89.9909L253.782 90.6196L253.141 88.8975L251.723 89.4305L252.568 91.713L252.323 92.41C251.314 92.205 250.236 92.2733 249.214 92.6424L248.955 92.1093L250.455 87.9544L249.023 87.4351L248.027 90.2096L245.982 86L244.618 86.6697L246.705 90.9613L243.855 89.9772L243.364 91.4123L247.645 92.8884L247.877 93.3531C247.059 93.9271 246.418 94.6925 246.009 95.5535L245.123 95.2392L244.414 93.2027L242.995 93.7084L243.623 95.4715L241.905 96.1139L242.436 97.5353L244.714 96.6879L245.559 96.9749C245.382 97.877 245.423 98.8337 245.695 99.7358L245.109 100.023L240.964 98.533L240.445 99.9681L243.2 100.979L239 103.03L239.668 104.396L243.95 102.305L242.968 105.148L244.4 105.64L245.873 101.349L246.309 101.13C246.868 102.032 247.659 102.743 248.545 103.207L248.218 104.15L246.2 104.861L246.705 106.282L248.464 105.654L249.105 107.376L250.523 106.843L249.677 104.547L249.977 103.713C250.932 103.918 251.941 103.904 252.909 103.604L253.073 103.945L251.559 108.128L252.991 108.647L254 105.845L256.032 110L257.395 109.33L255.35 105.134L258.159 106.105L258.65 104.67L254.409 103.207L254.3 102.975C255.186 102.415 255.895 101.649 256.359 100.761L257.164 101.048L257.873 103.071L259.291 102.565L258.664 100.802L260.382 100.159L259.85 98.738L257.573 99.5854L256.877 99.3394C257.123 98.2733 257.068 97.1389 256.659 96.0592L256.945 95.9226L261.118 97.4396L261.636 96.0046L258.841 94.9932L263 92.9567L262.332 91.6037L262.305 91.6173ZM254.545 95.4169L252.527 96.4009L253.25 94.3235C253.741 94.5968 254.177 94.9522 254.545 95.4169ZM251.818 93.8451L250.986 96.2369L249.895 93.9954C250.523 93.8041 251.177 93.7494 251.818 93.8451ZM248.559 94.7198L249.568 96.7973L247.468 96.0592C247.727 95.5535 248.095 95.1025 248.559 94.7198ZM246.977 97.4943L248.9 98.1777L247.059 99.0797C246.936 98.5467 246.909 98.0137 246.991 97.4943H246.977ZM247.659 100.46L249.868 99.3804L249.036 101.759C248.505 101.444 248.014 100.993 247.659 100.46ZM250.468 102.292L251.218 100.159L252.227 102.223C251.641 102.374 251.055 102.387 250.482 102.278L250.468 102.292ZM253.605 101.622L252.541 99.4487L254.873 100.269C254.559 100.802 254.136 101.267 253.591 101.622H253.605ZM255.418 98.8474L252.827 97.9317L255.282 96.7289C255.514 97.426 255.555 98.1503 255.418 98.8337V98.8474Z" fill="#75C9EA"></path> <path d="M162.03 116.37V110H162.96V112.75H166.15V110H167.08V116.37H166.15V113.62H162.96V116.37H162.03ZM169.18 116.5C168.83 116.5 168.53 116.44 168.29 116.31C168.05 116.18 167.87 116 167.75 115.79C167.63 115.57 167.57 115.33 167.57 115.07C167.57 114.83 167.61 114.62 167.7 114.43C167.79 114.25 167.91 114.09 168.08 113.97C168.25 113.84 168.45 113.74 168.7 113.66C168.91 113.6 169.15 113.54 169.42 113.5C169.69 113.46 169.97 113.41 170.27 113.37C170.57 113.33 170.86 113.29 171.16 113.25L170.82 113.44C170.82 113.07 170.75 112.79 170.58 112.61C170.42 112.43 170.14 112.34 169.74 112.34C169.49 112.34 169.26 112.4 169.05 112.52C168.84 112.64 168.69 112.83 168.61 113.1L167.75 112.83C167.87 112.42 168.09 112.09 168.42 111.85C168.75 111.61 169.2 111.49 169.75 111.49C170.18 111.49 170.55 111.56 170.87 111.71C171.19 111.85 171.42 112.08 171.57 112.4C171.65 112.56 171.69 112.72 171.71 112.9C171.73 113.07 171.74 113.26 171.74 113.46V116.4H170.92V115.31L171.08 115.45C170.88 115.82 170.63 116.09 170.32 116.27C170.02 116.45 169.64 116.54 169.2 116.54L169.18 116.5ZM169.34 115.74C169.6 115.74 169.83 115.69 170.02 115.6C170.21 115.51 170.36 115.39 170.48 115.24C170.6 115.09 170.67 114.94 170.71 114.79C170.76 114.65 170.79 114.49 170.79 114.31C170.79 114.13 170.8 113.99 170.8 113.89L171.1 114C170.81 114.04 170.54 114.08 170.3 114.12C170.06 114.16 169.84 114.19 169.65 114.23C169.46 114.26 169.29 114.3 169.14 114.35C169.01 114.39 168.9 114.45 168.8 114.51C168.7 114.57 168.62 114.65 168.57 114.74C168.51 114.83 168.49 114.94 168.49 115.06C168.49 115.18 168.52 115.3 168.58 115.41C168.64 115.51 168.74 115.6 168.86 115.66C168.99 115.72 169.15 115.75 169.35 115.75L169.34 115.74ZM173.66 116.36V111.58H174.6V113.88L176.48 111.58H177.66L175.68 113.97L177.87 116.36H176.61L174.61 114.06V116.36H173.67H173.66ZM179.17 116.49C178.82 116.49 178.52 116.43 178.28 116.3C178.04 116.17 177.86 115.99 177.74 115.78C177.62 115.56 177.56 115.32 177.56 115.06C177.56 114.82 177.6 114.61 177.69 114.42C177.78 114.24 177.9 114.08 178.07 113.96C178.24 113.83 178.44 113.73 178.69 113.65C178.9 113.59 179.14 113.53 179.41 113.49C179.68 113.45 179.96 113.4 180.26 113.36C180.56 113.32 180.85 113.28 181.15 113.24L180.81 113.43C180.81 113.06 180.74 112.78 180.57 112.6C180.41 112.42 180.13 112.33 179.73 112.33C179.48 112.33 179.25 112.39 179.04 112.51C178.83 112.63 178.68 112.82 178.6 113.09L177.74 112.82C177.86 112.41 178.08 112.08 178.41 111.84C178.74 111.6 179.19 111.48 179.74 111.48C180.17 111.48 180.54 111.55 180.86 111.7C181.18 111.84 181.41 112.07 181.56 112.39C181.64 112.55 181.68 112.71 181.7 112.89C181.72 113.06 181.73 113.25 181.73 113.45V116.39H180.91V115.3L181.07 115.44C180.87 115.81 180.62 116.08 180.31 116.26C180.01 116.44 179.63 116.53 179.19 116.53L179.17 116.49ZM179.33 115.73C179.59 115.73 179.82 115.68 180.01 115.59C180.2 115.5 180.35 115.38 180.47 115.23C180.59 115.09 180.66 114.93 180.7 114.78C180.75 114.64 180.78 114.48 180.78 114.3C180.78 114.12 180.79 113.98 180.79 113.88L181.09 113.99C180.8 114.03 180.53 114.07 180.29 114.11C180.05 114.15 179.83 114.18 179.64 114.22C179.45 114.25 179.28 114.29 179.13 114.34C179 114.38 178.89 114.44 178.79 114.5C178.69 114.56 178.61 114.64 178.56 114.73C178.5 114.82 178.48 114.93 178.48 115.05C178.48 115.17 178.51 115.29 178.57 115.4C178.63 115.5 178.73 115.59 178.85 115.65C178.98 115.71 179.14 115.74 179.34 115.74L179.33 115.73ZM184.61 116.49C184.15 116.49 183.77 116.38 183.46 116.16C183.15 115.94 182.92 115.63 182.76 115.25C182.6 114.87 182.52 114.44 182.52 113.96C182.52 113.48 182.6 113.05 182.75 112.67C182.91 112.29 183.14 111.99 183.45 111.77C183.76 111.55 184.14 111.44 184.59 111.44C185.04 111.44 185.43 111.55 185.75 111.77C186.08 111.99 186.33 112.29 186.51 112.67C186.69 113.05 186.78 113.48 186.78 113.96C186.78 114.44 186.69 114.87 186.51 115.25C186.34 115.63 186.09 115.93 185.76 116.15C185.44 116.37 185.05 116.48 184.61 116.48V116.49ZM182.36 118.48V111.57H183.18V115.01H183.29V118.48H182.36ZM184.48 115.65C184.78 115.65 185.02 115.57 185.21 115.42C185.4 115.27 185.55 115.07 185.64 114.81C185.74 114.55 185.79 114.27 185.79 113.95C185.79 113.63 185.74 113.35 185.64 113.1C185.55 112.85 185.4 112.64 185.2 112.49C185 112.34 184.75 112.26 184.44 112.26C184.15 112.26 183.91 112.33 183.72 112.47C183.53 112.61 183.4 112.81 183.3 113.06C183.21 113.31 183.17 113.61 183.17 113.94C183.17 114.27 183.21 114.56 183.3 114.82C183.39 115.07 183.53 115.27 183.72 115.42C183.91 115.57 184.16 115.64 184.46 115.64L184.48 115.65ZM188.5 116.35V112.4H186.87V111.57H191.06V112.4H189.43V116.35H188.5ZM195.44 111.57V116.35H194.55V113.03L192.16 116.35H191.41V111.57H192.3V114.83L194.7 111.57H195.45H195.44ZM196.19 116.35V111.57H197.12V113.52H199.45V111.57H200.38V116.35H199.45V114.39H197.12V116.35H196.19ZM201.12 116.35V111.57H202.05V113.23H202.68C202.82 113.23 202.96 113.23 203.12 113.23C203.28 113.23 203.41 113.25 203.52 113.27C203.78 113.32 204 113.41 204.19 113.54C204.38 113.66 204.52 113.83 204.62 114.04C204.72 114.24 204.78 114.49 204.78 114.79C204.78 115.21 204.67 115.54 204.46 115.79C204.24 116.03 203.95 116.2 203.58 116.29C203.46 116.32 203.32 116.33 203.16 116.34C203 116.34 202.85 116.34 202.72 116.34H201.13L201.12 116.35ZM202.05 115.61H202.76C202.84 115.61 202.92 115.61 203.02 115.61C203.12 115.61 203.2 115.59 203.28 115.57C203.42 115.53 203.54 115.44 203.66 115.32C203.77 115.19 203.83 115.02 203.83 114.81C203.83 114.6 203.77 114.42 203.66 114.29C203.55 114.16 203.41 114.08 203.24 114.04C203.16 114.02 203.08 114.01 203 114C202.92 114 202.84 114 202.77 114H202.06V115.63L202.05 115.61ZM205.3 116.35V111.57H206.23V116.35H205.3ZM162.01 126.84V122.06H166.04V126.84H165.11V122.93H162.93V126.84H162H162.01ZM168.87 126.97C168.39 126.97 167.98 126.86 167.63 126.65C167.28 126.43 167.01 126.14 166.82 125.76C166.63 125.38 166.54 124.94 166.54 124.45C166.54 123.96 166.64 123.51 166.83 123.14C167.02 122.76 167.3 122.46 167.65 122.25C168 122.04 168.41 121.93 168.88 121.93C169.35 121.93 169.77 122.04 170.12 122.25C170.47 122.47 170.74 122.76 170.93 123.14C171.12 123.52 171.22 123.95 171.22 124.45C171.22 124.95 171.12 125.39 170.93 125.77C170.74 126.15 170.47 126.44 170.12 126.66C169.77 126.87 169.36 126.98 168.88 126.98L168.87 126.97ZM168.87 126.1C169.33 126.1 169.67 125.95 169.89 125.64C170.12 125.33 170.23 124.93 170.23 124.44C170.23 123.95 170.11 123.54 169.88 123.24C169.65 122.94 169.31 122.79 168.86 122.79C168.55 122.79 168.29 122.86 168.09 123C167.89 123.14 167.74 123.33 167.64 123.58C167.54 123.82 167.49 124.11 167.49 124.43C167.49 124.93 167.61 125.33 167.84 125.63C168.07 125.93 168.41 126.08 168.85 126.08L168.87 126.1ZM172.98 126.84V122.06H173.91V124.01H176.24V122.06H177.17V126.84H176.24V124.88H173.91V126.84H172.98ZM179.99 126.97C179.51 126.97 179.1 126.86 178.75 126.65C178.4 126.43 178.13 126.14 177.94 125.76C177.75 125.38 177.66 124.94 177.66 124.45C177.66 123.96 177.76 123.51 177.95 123.14C178.14 122.76 178.42 122.46 178.77 122.25C179.12 122.04 179.53 121.93 180 121.93C180.47 121.93 180.89 122.04 181.24 122.25C181.59 122.46 181.86 122.76 182.05 123.14C182.24 123.52 182.34 123.95 182.34 124.45C182.34 124.95 182.24 125.39 182.05 125.77C181.86 126.15 181.59 126.44 181.24 126.66C180.89 126.87 180.48 126.98 180 126.98L179.99 126.97ZM179.99 126.1C180.45 126.1 180.79 125.95 181.01 125.64C181.24 125.33 181.35 124.93 181.35 124.44C181.35 123.95 181.23 123.54 181 123.24C180.77 122.94 180.43 122.79 179.98 122.79C179.67 122.79 179.41 122.86 179.21 123C179.01 123.14 178.86 123.33 178.76 123.58C178.66 123.82 178.61 124.11 178.61 124.43C178.61 124.93 178.73 125.33 178.96 125.63C179.19 125.93 179.53 126.08 179.97 126.08L179.99 126.1ZM182.82 126.84V122.06H183.59L185.36 125.57L187.12 122.06H187.9V126.84H187.01V123.95L185.57 126.84H185.15L183.71 123.95V126.84H182.82ZM190.78 126.97C190.3 126.97 189.89 126.87 189.53 126.66C189.17 126.45 188.89 126.16 188.69 125.79C188.49 125.42 188.39 124.98 188.39 124.49C188.39 123.97 188.49 123.51 188.68 123.13C188.88 122.75 189.15 122.45 189.5 122.24C189.85 122.03 190.26 121.93 190.73 121.93C191.2 121.93 191.63 122.04 191.97 122.27C192.31 122.49 192.57 122.81 192.74 123.23C192.91 123.65 192.98 124.14 192.94 124.71H192.01V124.37C192.01 123.82 191.9 123.4 191.69 123.14C191.49 122.87 191.17 122.74 190.76 122.74C190.3 122.74 189.95 122.89 189.72 123.18C189.49 123.47 189.37 123.89 189.37 124.45C189.37 125.01 189.49 125.38 189.72 125.67C189.95 125.96 190.29 126.1 190.73 126.1C191.02 126.1 191.27 126.04 191.48 125.91C191.69 125.78 191.86 125.59 191.98 125.34L192.89 125.63C192.7 126.06 192.42 126.39 192.04 126.63C191.66 126.86 191.24 126.98 190.78 126.98V126.97ZM189.08 124.71V123.99H192.49V124.71H189.08ZM195.7 126.97C195.24 126.97 194.86 126.86 194.55 126.64C194.24 126.42 194.01 126.11 193.85 125.73C193.69 125.35 193.61 124.92 193.61 124.44C193.61 123.96 193.69 123.53 193.84 123.15C194 122.77 194.23 122.47 194.54 122.25C194.85 122.03 195.23 121.92 195.68 121.92C196.13 121.92 196.52 122.03 196.84 122.25C197.17 122.47 197.42 122.77 197.6 123.15C197.78 123.53 197.87 123.96 197.87 124.44C197.87 124.92 197.78 125.35 197.6 125.73C197.43 126.11 197.18 126.41 196.85 126.63C196.53 126.85 196.14 126.96 195.7 126.96V126.97ZM193.45 128.96V122.05H194.27V125.49H194.38V128.96H193.45ZM195.57 126.13C195.87 126.13 196.11 126.05 196.3 125.9C196.49 125.75 196.64 125.55 196.73 125.29C196.83 125.03 196.88 124.75 196.88 124.43C196.88 124.11 196.83 123.83 196.73 123.58C196.64 123.33 196.49 123.12 196.29 122.97C196.09 122.82 195.84 122.74 195.53 122.74C195.24 122.74 195 122.81 194.81 122.95C194.62 123.09 194.49 123.29 194.39 123.54C194.3 123.79 194.26 124.09 194.26 124.42C194.26 124.75 194.3 125.04 194.39 125.3C194.48 125.55 194.62 125.75 194.81 125.9C195 126.04 195.25 126.12 195.55 126.12L195.57 126.13ZM199.7 126.97C199.35 126.97 199.05 126.91 198.81 126.78C198.57 126.65 198.39 126.47 198.27 126.26C198.15 126.04 198.09 125.8 198.09 125.54C198.09 125.3 198.13 125.09 198.22 124.9C198.31 124.72 198.43 124.56 198.6 124.44C198.77 124.31 198.97 124.21 199.22 124.13C199.43 124.07 199.67 124.01 199.94 123.97C200.21 123.92 200.49 123.88 200.79 123.84C201.09 123.8 201.38 123.76 201.68 123.72L201.34 123.91C201.34 123.54 201.27 123.26 201.1 123.08C200.94 122.9 200.66 122.81 200.26 122.81C200.01 122.81 199.78 122.87 199.57 122.99C199.36 123.11 199.21 123.3 199.13 123.57L198.27 123.3C198.39 122.89 198.61 122.56 198.94 122.32C199.27 122.08 199.72 121.96 200.27 121.96C200.7 121.96 201.07 122.03 201.39 122.18C201.71 122.32 201.94 122.55 202.09 122.87C202.17 123.03 202.21 123.19 202.23 123.37C202.25 123.54 202.26 123.73 202.26 123.93V126.87H201.44V125.78L201.6 125.92C201.4 126.29 201.15 126.56 200.84 126.74C200.54 126.92 200.16 127.01 199.72 127.01L199.7 126.97ZM199.86 126.21C200.12 126.21 200.35 126.16 200.54 126.07C200.73 125.98 200.88 125.86 201 125.71C201.12 125.57 201.19 125.41 201.23 125.26C201.28 125.12 201.31 124.96 201.31 124.78C201.31 124.6 201.32 124.46 201.32 124.36L201.62 124.47C201.33 124.51 201.06 124.55 200.82 124.59C200.58 124.63 200.36 124.66 200.17 124.7C199.98 124.73 199.81 124.77 199.66 124.82C199.53 124.86 199.42 124.92 199.32 124.98C199.22 125.04 199.14 125.12 199.09 125.21C199.03 125.3 199.01 125.41 199.01 125.53C199.01 125.65 199.04 125.77 199.1 125.88C199.16 125.98 199.26 126.07 199.38 126.13C199.51 126.19 199.67 126.22 199.87 126.22L199.86 126.21ZM202.9 126.83V122.05H203.67L205.44 125.56L207.2 122.05H207.98V126.83H207.09V123.94L205.65 126.83H205.23L203.79 123.94V126.83H202.9ZM210.02 126.83V122.05H214.05V126.83H213.12V122.92H210.94V126.83H210.01H210.02ZM216.88 126.96C216.4 126.96 215.99 126.85 215.64 126.64C215.29 126.42 215.02 126.13 214.83 125.75C214.64 125.37 214.55 124.93 214.55 124.44C214.55 123.95 214.65 123.5 214.84 123.13C215.03 122.75 215.31 122.45 215.66 122.24C216.01 122.03 216.42 121.92 216.89 121.92C217.36 121.92 217.78 122.03 218.13 122.24C218.48 122.45 218.75 122.75 218.94 123.13C219.13 123.51 219.23 123.94 219.23 124.44C219.23 124.94 219.13 125.38 218.94 125.76C218.75 126.14 218.48 126.43 218.13 126.65C217.78 126.86 217.37 126.97 216.89 126.97L216.88 126.96ZM216.88 126.09C217.34 126.09 217.68 125.94 217.9 125.63C218.13 125.32 218.24 124.92 218.24 124.43C218.24 123.94 218.12 123.53 217.89 123.23C217.66 122.93 217.32 122.78 216.87 122.78C216.56 122.78 216.3 122.85 216.1 122.99C215.9 123.13 215.75 123.32 215.65 123.57C215.55 123.81 215.5 124.1 215.5 124.42C215.5 124.92 215.62 125.32 215.85 125.62C216.08 125.92 216.42 126.07 216.86 126.07L216.88 126.09ZM220.56 126.83V126.05C220.74 126.08 220.87 126.08 220.96 126.04C221.05 126 221.12 125.92 221.17 125.8C221.22 125.68 221.26 125.54 221.29 125.35C221.34 125.08 221.38 124.78 221.42 124.43C221.46 124.08 221.49 123.71 221.52 123.31C221.55 122.91 221.58 122.49 221.6 122.05H225.04V126.83H224.11V122.92H222.44C222.42 123.15 222.4 123.4 222.38 123.66C222.36 123.92 222.34 124.18 222.31 124.43C222.28 124.69 222.26 124.93 222.23 125.15C222.2 125.37 222.17 125.57 222.14 125.73C222.08 126.05 221.99 126.3 221.88 126.49C221.77 126.68 221.61 126.8 221.4 126.85C221.19 126.91 220.92 126.9 220.58 126.82L220.56 126.83ZM229.83 126.96C229.43 126.96 229.08 126.88 228.77 126.71C228.46 126.54 228.21 126.31 228.02 126C227.83 125.69 227.7 125.32 227.65 124.9H226.72V126.83H225.79V122.05H226.72V123.98H227.65C227.7 123.55 227.83 123.18 228.03 122.87C228.23 122.56 228.48 122.33 228.79 122.17C229.1 122.01 229.46 121.93 229.85 121.93C230.33 121.93 230.74 122.04 231.09 122.25C231.44 122.47 231.71 122.76 231.9 123.14C232.09 123.52 232.19 123.95 232.19 124.44C232.19 124.93 232.09 125.38 231.9 125.76C231.71 126.14 231.44 126.44 231.09 126.65C230.74 126.86 230.33 126.97 229.85 126.97L229.83 126.96ZM229.82 126.09C230.28 126.09 230.63 125.94 230.86 125.63C231.09 125.32 231.2 124.92 231.2 124.43C231.2 123.94 231.08 123.53 230.85 123.23C230.62 122.93 230.28 122.78 229.82 122.78C229.36 122.78 229.04 122.93 228.81 123.23C228.58 123.53 228.47 123.92 228.47 124.43C228.47 124.94 228.58 125.34 228.81 125.64C229.04 125.94 229.38 126.09 229.81 126.09H229.82ZM234.63 126.97C234.18 126.97 233.79 126.87 233.47 126.67C233.15 126.47 232.9 126.19 232.72 125.83C232.54 125.46 232.44 125.02 232.41 124.5C232.4 124.25 232.4 123.97 232.41 123.67C232.43 123.36 232.46 123.07 232.51 122.78C232.56 122.49 232.62 122.25 232.7 122.06C232.79 121.85 232.9 121.65 233.05 121.48C233.2 121.3 233.36 121.15 233.54 121.03C233.73 120.9 233.94 120.8 234.17 120.73C234.4 120.66 234.64 120.6 234.89 120.56C235.14 120.52 235.4 120.48 235.66 120.45C235.92 120.42 236.17 120.38 236.42 120.33L236.51 121.16C236.35 121.2 236.16 121.23 235.93 121.25C235.71 121.27 235.48 121.3 235.25 121.33C235.02 121.36 234.79 121.4 234.58 121.45C234.37 121.5 234.18 121.58 234.03 121.68C233.81 121.82 233.64 122.01 233.52 122.27C233.4 122.53 233.34 122.81 233.31 123.12C233.49 122.84 233.73 122.64 234.01 122.52C234.29 122.4 234.59 122.33 234.89 122.33C235.31 122.33 235.68 122.43 235.99 122.63C236.3 122.83 236.54 123.1 236.7 123.45C236.87 123.8 236.95 124.19 236.95 124.62C236.95 125.09 236.85 125.51 236.66 125.86C236.47 126.21 236.2 126.49 235.85 126.68C235.5 126.87 235.1 126.97 234.64 126.96L234.63 126.97ZM234.68 126.1C235.1 126.1 235.43 125.97 235.64 125.71C235.86 125.45 235.97 125.1 235.97 124.66C235.97 124.22 235.86 123.86 235.63 123.6C235.41 123.34 235.09 123.21 234.68 123.21C234.27 123.21 233.95 123.34 233.72 123.6C233.5 123.86 233.39 124.21 233.39 124.66C233.39 125.11 233.5 125.47 233.72 125.72C233.94 125.97 234.26 126.1 234.67 126.1H234.68ZM239.51 126.97C239.03 126.97 238.62 126.86 238.27 126.65C237.92 126.43 237.65 126.14 237.46 125.76C237.27 125.38 237.18 124.94 237.18 124.45C237.18 123.96 237.28 123.51 237.47 123.14C237.66 122.76 237.94 122.46 238.29 122.25C238.64 122.04 239.05 121.93 239.52 121.93C239.99 121.93 240.41 122.04 240.76 122.25C241.11 122.46 241.38 122.76 241.57 123.14C241.76 123.52 241.86 123.95 241.86 124.45C241.86 124.95 241.76 125.39 241.57 125.77C241.38 126.15 241.11 126.44 240.76 126.66C240.41 126.87 240 126.98 239.52 126.98L239.51 126.97ZM239.51 126.1C239.97 126.1 240.31 125.95 240.53 125.64C240.76 125.33 240.87 124.93 240.87 124.44C240.87 123.95 240.75 123.54 240.52 123.24C240.29 122.94 239.95 122.79 239.5 122.79C239.19 122.79 238.93 122.86 238.73 123C238.53 123.14 238.38 123.33 238.28 123.58C238.18 123.82 238.13 124.11 238.13 124.43C238.13 124.93 238.25 125.33 238.48 125.63C238.71 125.93 239.05 126.08 239.49 126.08L239.51 126.1ZM242.34 126.84V122.06H243.11L244.88 125.57L246.64 122.06H247.42V126.84H246.53V123.95L245.09 126.84H244.67L243.23 123.95V126.84H242.34ZM248.82 128.96L249.75 126.44V127.18L247.68 122.05H248.65L250.21 126.01H249.93L251.42 122.05H252.36L249.72 128.96H248.84H248.82ZM166.04 132.55V137.33H165.15V134.01L162.76 137.33H162.01V132.55H162.9V135.81L165.29 132.55H166.04ZM168.49 137.46C168.03 137.46 167.61 137.36 167.24 137.16C166.87 136.96 166.58 136.69 166.37 136.34L167.1 135.86C167.27 136.09 167.47 136.27 167.69 136.4C167.92 136.53 168.17 136.59 168.46 136.59C168.75 136.59 168.99 136.52 169.16 136.39C169.33 136.25 169.42 136.07 169.42 135.85C169.42 135.67 169.37 135.54 169.27 135.45C169.17 135.36 169.04 135.3 168.86 135.28C168.69 135.25 168.49 135.24 168.28 135.24H167.86V134.5H168.28C168.57 134.5 168.81 134.46 168.99 134.38C169.18 134.3 169.27 134.14 169.27 133.92C169.27 133.7 169.19 133.54 169.03 133.44C168.87 133.34 168.68 133.29 168.46 133.29C168.21 133.29 167.97 133.34 167.74 133.45C167.51 133.55 167.3 133.68 167.13 133.84L166.59 133.21C166.84 132.97 167.13 132.77 167.46 132.64C167.79 132.5 168.14 132.43 168.51 132.43C168.82 132.43 169.1 132.48 169.36 132.59C169.62 132.7 169.83 132.85 169.99 133.06C170.15 133.27 170.23 133.53 170.23 133.83C170.23 134.07 170.18 134.29 170.07 134.49C169.96 134.69 169.8 134.87 169.58 135.03L169.55 134.72C169.73 134.78 169.88 134.87 170 134.99C170.12 135.11 170.21 135.26 170.27 135.43C170.33 135.6 170.36 135.77 170.36 135.96C170.36 136.28 170.27 136.56 170.1 136.78C169.93 137.01 169.7 137.18 169.42 137.3C169.13 137.42 168.82 137.48 168.47 137.48L168.49 137.46ZM172.94 137.46C172.46 137.46 172.05 137.35 171.7 137.14C171.35 136.92 171.08 136.63 170.89 136.25C170.7 135.87 170.61 135.43 170.61 134.94C170.61 134.45 170.71 134 170.9 133.63C171.09 133.25 171.37 132.95 171.72 132.74C172.07 132.53 172.48 132.42 172.95 132.42C173.42 132.42 173.84 132.53 174.19 132.74C174.54 132.96 174.81 133.25 175 133.63C175.19 134.01 175.29 134.44 175.29 134.94C175.29 135.44 175.19 135.88 175 136.26C174.81 136.64 174.54 136.93 174.19 137.15C173.84 137.36 173.43 137.47 172.95 137.47L172.94 137.46ZM172.94 136.59C173.4 136.59 173.74 136.44 173.96 136.13C174.19 135.82 174.3 135.42 174.3 134.93C174.3 134.44 174.18 134.03 173.95 133.73C173.72 133.43 173.38 133.28 172.93 133.28C172.62 133.28 172.36 133.35 172.16 133.49C171.96 133.63 171.81 133.82 171.71 134.07C171.61 134.31 171.56 134.6 171.56 134.92C171.56 135.42 171.68 135.82 171.91 136.12C172.14 136.42 172.48 136.57 172.92 136.57L172.94 136.59ZM177.74 137.47C177.29 137.47 176.9 137.37 176.58 137.17C176.26 136.97 176.01 136.69 175.83 136.33C175.65 135.96 175.55 135.52 175.52 135C175.51 134.75 175.51 134.47 175.52 134.17C175.54 133.86 175.57 133.57 175.62 133.28C175.67 132.99 175.73 132.75 175.81 132.56C175.9 132.35 176.01 132.15 176.16 131.98C176.31 131.8 176.47 131.65 176.65 131.53C176.84 131.4 177.05 131.3 177.28 131.23C177.51 131.16 177.75 131.1 178 131.06C178.25 131.02 178.51 130.98 178.77 130.95C179.03 130.92 179.28 130.88 179.53 130.83L179.62 131.66C179.46 131.7 179.27 131.73 179.04 131.75C178.82 131.77 178.59 131.8 178.36 131.83C178.13 131.86 177.9 131.9 177.69 131.95C177.48 132 177.29 132.08 177.14 132.18C176.92 132.32 176.75 132.51 176.63 132.77C176.51 133.03 176.45 133.31 176.42 133.62C176.6 133.34 176.84 133.14 177.12 133.02C177.4 132.9 177.7 132.83 178 132.83C178.42 132.83 178.79 132.93 179.1 133.13C179.41 133.33 179.65 133.6 179.81 133.95C179.98 134.3 180.06 134.69 180.06 135.12C180.06 135.59 179.96 136.01 179.77 136.36C179.58 136.71 179.31 136.99 178.96 137.18C178.61 137.37 178.21 137.47 177.75 137.46L177.74 137.47ZM177.79 136.6C178.21 136.6 178.54 136.47 178.75 136.21C178.97 135.95 179.08 135.6 179.08 135.16C179.08 134.72 178.97 134.36 178.74 134.1C178.52 133.84 178.2 133.71 177.79 133.71C177.38 133.71 177.06 133.84 176.83 134.1C176.61 134.36 176.5 134.71 176.5 135.16C176.5 135.61 176.61 135.97 176.83 136.22C177.05 136.47 177.37 136.6 177.78 136.6H177.79ZM182.79 137.47C182.33 137.47 181.95 137.36 181.64 137.14C181.33 136.92 181.1 136.61 180.94 136.23C180.78 135.85 180.7 135.42 180.7 134.94C180.7 134.46 180.78 134.03 180.93 133.65C181.09 133.27 181.32 132.97 181.63 132.75C181.94 132.53 182.32 132.42 182.77 132.42C183.22 132.42 183.61 132.53 183.93 132.75C184.26 132.97 184.51 133.27 184.69 133.65C184.87 134.03 184.96 134.46 184.96 134.94C184.96 135.42 184.87 135.85 184.69 136.23C184.52 136.61 184.27 136.91 183.94 137.13C183.62 137.35 183.23 137.46 182.79 137.46V137.47ZM180.54 139.46V132.55H181.36V135.99H181.47V139.46H180.54ZM182.66 136.63C182.96 136.63 183.2 136.55 183.39 136.4C183.58 136.25 183.73 136.05 183.82 135.79C183.92 135.53 183.97 135.25 183.97 134.93C183.97 134.61 183.92 134.33 183.82 134.08C183.73 133.83 183.58 133.62 183.38 133.47C183.18 133.32 182.93 133.24 182.62 133.24C182.33 133.24 182.09 133.31 181.9 133.45C181.71 133.59 181.58 133.79 181.48 134.04C181.39 134.29 181.35 134.59 181.35 134.92C181.35 135.25 181.39 135.54 181.48 135.8C181.57 136.06 181.71 136.25 181.9 136.4C182.09 136.55 182.34 136.62 182.64 136.62L182.66 136.63ZM186.79 137.47C186.44 137.47 186.14 137.41 185.9 137.28C185.66 137.15 185.48 136.97 185.36 136.76C185.24 136.54 185.18 136.3 185.18 136.04C185.18 135.8 185.22 135.59 185.31 135.4C185.4 135.22 185.52 135.06 185.69 134.94C185.86 134.81 186.06 134.71 186.31 134.63C186.52 134.57 186.76 134.51 187.03 134.47C187.3 134.42 187.58 134.38 187.88 134.34C188.18 134.3 188.47 134.26 188.77 134.22L188.43 134.41C188.43 134.04 188.36 133.76 188.19 133.58C188.03 133.4 187.75 133.31 187.35 133.31C187.1 133.31 186.87 133.37 186.66 133.49C186.45 133.61 186.3 133.8 186.22 134.07L185.36 133.8C185.48 133.39 185.7 133.06 186.03 132.82C186.36 132.58 186.81 132.46 187.36 132.46C187.79 132.46 188.16 132.53 188.48 132.68C188.8 132.82 189.03 133.05 189.18 133.37C189.26 133.53 189.3 133.69 189.32 133.87C189.34 134.05 189.35 134.23 189.35 134.43V137.37H188.53V136.28L188.69 136.42C188.49 136.79 188.24 137.06 187.93 137.24C187.63 137.42 187.25 137.51 186.81 137.51L186.79 137.47ZM186.95 136.71C187.21 136.71 187.44 136.66 187.63 136.57C187.82 136.48 187.97 136.36 188.09 136.21C188.21 136.07 188.28 135.91 188.32 135.76C188.37 135.62 188.4 135.46 188.4 135.28C188.4 135.1 188.41 134.96 188.41 134.86L188.71 134.97C188.42 135.01 188.15 135.05 187.91 135.09C187.67 135.13 187.45 135.16 187.26 135.2C187.07 135.23 186.9 135.27 186.75 135.32C186.62 135.36 186.51 135.42 186.41 135.48C186.31 135.54 186.23 135.62 186.18 135.71C186.12 135.8 186.1 135.91 186.1 136.03C186.1 136.15 186.13 136.27 186.19 136.38C186.25 136.48 186.35 136.57 186.47 136.63C186.6 136.69 186.76 136.72 186.96 136.72L186.95 136.71ZM189.46 137.33L191.3 134.94L189.56 132.55H190.58L192.24 134.88V132.55H193.07V134.88L194.73 132.55H195.75L194.01 134.94L195.85 137.33H194.77L193.06 135V137.33H192.23V135L190.52 137.33H189.44H189.46ZM198.03 137.46C197.55 137.46 197.14 137.36 196.78 137.15C196.42 136.94 196.14 136.65 195.94 136.28C195.74 135.91 195.64 135.47 195.64 134.98C195.64 134.46 195.74 134 195.93 133.62C196.13 133.24 196.4 132.94 196.75 132.73C197.1 132.52 197.51 132.42 197.98 132.42C198.45 132.42 198.88 132.53 199.22 132.76C199.56 132.98 199.82 133.3 199.99 133.72C200.16 134.14 200.23 134.63 200.19 135.2H199.26V134.86C199.26 134.31 199.15 133.89 198.94 133.63C198.74 133.36 198.42 133.23 198.01 133.23C197.55 133.23 197.2 133.38 196.97 133.67C196.74 133.96 196.62 134.38 196.62 134.94C196.62 135.5 196.74 135.87 196.97 136.16C197.2 136.45 197.54 136.59 197.98 136.59C198.27 136.59 198.52 136.53 198.73 136.4C198.94 136.27 199.11 136.08 199.23 135.83L200.14 136.12C199.95 136.55 199.67 136.88 199.29 137.12C198.91 137.35 198.49 137.47 198.03 137.47V137.46ZM196.33 135.2V134.48H199.74V135.2H196.33ZM200.71 137.33V132.55H201.64V134.5H203.97V132.55H204.9V137.33H203.97V135.37H201.64V137.33H200.71ZM209.68 132.55V137.33H208.79V134.01L206.4 137.33H205.65V132.55H206.54V135.81L208.94 132.55H209.69H209.68ZM214.47 137.46C214.07 137.46 213.72 137.38 213.41 137.21C213.1 137.04 212.85 136.81 212.66 136.5C212.47 136.19 212.34 135.82 212.29 135.4H211.36V137.33H210.43V132.55H211.36V134.48H212.29C212.34 134.05 212.47 133.68 212.67 133.37C212.87 133.06 213.12 132.83 213.43 132.67C213.74 132.51 214.1 132.43 214.49 132.43C214.97 132.43 215.38 132.54 215.73 132.75C216.08 132.97 216.35 133.26 216.54 133.64C216.73 134.02 216.83 134.45 216.83 134.94C216.83 135.43 216.73 135.88 216.54 136.26C216.35 136.64 216.08 136.94 215.73 137.15C215.38 137.36 214.97 137.47 214.49 137.47L214.47 137.46ZM214.46 136.59C214.92 136.59 215.27 136.44 215.5 136.13C215.73 135.82 215.84 135.42 215.84 134.93C215.84 134.44 215.72 134.03 215.49 133.73C215.26 133.43 214.92 133.28 214.46 133.28C214 133.28 213.68 133.43 213.45 133.73C213.22 134.03 213.11 134.42 213.11 134.93C213.11 135.44 213.22 135.84 213.45 136.14C213.68 136.44 214.02 136.59 214.45 136.59H214.46ZM222.62 132.55V137.33H221.73V134.01L219.34 137.33H218.59V132.55H219.48V135.81L221.87 132.55H222.62ZM222.93 137.33V136.55C223.11 136.58 223.24 136.58 223.33 136.54C223.42 136.5 223.49 136.42 223.54 136.3C223.59 136.18 223.63 136.04 223.66 135.85C223.71 135.58 223.75 135.28 223.79 134.93C223.83 134.58 223.86 134.21 223.89 133.81C223.92 133.41 223.95 132.99 223.97 132.55H227.41V137.33H226.48V133.42H224.81C224.79 133.65 224.77 133.9 224.75 134.16C224.73 134.42 224.71 134.68 224.68 134.93C224.65 135.19 224.63 135.43 224.6 135.65C224.57 135.87 224.54 136.07 224.51 136.23C224.45 136.55 224.36 136.8 224.25 136.99C224.14 137.18 223.98 137.3 223.77 137.35C223.56 137.41 223.29 137.4 222.95 137.32L222.93 137.33ZM232.19 132.55V137.33H231.3V134.01L228.91 137.33H228.16V132.55H229.05V135.81L231.45 132.55H232.2H232.19ZM236.47 139.32V137.41C236 137.48 235.58 137.43 235.2 137.26C234.82 137.09 234.52 136.8 234.29 136.41C234.06 136.02 233.95 135.53 233.95 134.94C233.95 134.35 234.06 133.86 234.29 133.47C234.51 133.07 234.82 132.79 235.2 132.62C235.58 132.45 236 132.4 236.47 132.47V131.02H237.3V132.47C237.77 132.4 238.19 132.45 238.57 132.62C238.95 132.79 239.25 133.08 239.48 133.47C239.7 133.87 239.82 134.36 239.82 134.94C239.82 135.52 239.71 136.02 239.48 136.41C239.26 136.8 238.95 137.09 238.57 137.26C238.19 137.43 237.77 137.48 237.3 137.41V139.32H236.47ZM236.47 136.58V133.31C236.23 133.27 236.01 133.28 235.82 133.33C235.63 133.39 235.46 133.48 235.33 133.63C235.19 133.77 235.09 133.95 235.02 134.17C234.95 134.39 234.91 134.65 234.91 134.94C234.91 135.23 234.95 135.49 235.02 135.71C235.1 135.93 235.2 136.11 235.34 136.25C235.48 136.39 235.65 136.49 235.84 136.54C236.03 136.59 236.24 136.6 236.47 136.56V136.58ZM237.3 136.58C237.53 136.62 237.74 136.61 237.93 136.56C238.12 136.51 238.29 136.41 238.43 136.27C238.57 136.13 238.68 135.95 238.75 135.73C238.83 135.51 238.87 135.24 238.87 134.95C238.87 134.66 238.83 134.39 238.76 134.17C238.69 133.95 238.58 133.76 238.45 133.63C238.31 133.49 238.15 133.39 237.95 133.34C237.76 133.29 237.54 133.28 237.3 133.32V136.59V136.58ZM242.38 137.47C241.9 137.47 241.49 137.36 241.14 137.15C240.79 136.93 240.52 136.64 240.33 136.26C240.14 135.88 240.05 135.44 240.05 134.95C240.05 134.46 240.15 134.01 240.34 133.64C240.53 133.26 240.81 132.96 241.16 132.75C241.51 132.54 241.92 132.43 242.39 132.43C242.86 132.43 243.28 132.54 243.63 132.75C243.98 132.97 244.25 133.26 244.44 133.64C244.63 134.02 244.73 134.45 244.73 134.95C244.73 135.45 244.63 135.89 244.44 136.27C244.25 136.65 243.98 136.94 243.63 137.16C243.28 137.37 242.87 137.48 242.39 137.48L242.38 137.47ZM242.38 136.6C242.84 136.6 243.18 136.45 243.4 136.14C243.63 135.83 243.74 135.43 243.74 134.94C243.74 134.45 243.62 134.04 243.39 133.74C243.16 133.44 242.82 133.29 242.37 133.29C242.06 133.29 241.8 133.36 241.6 133.5C241.4 133.64 241.25 133.83 241.15 134.08C241.05 134.32 241 134.61 241 134.93C241 135.43 241.12 135.83 241.35 136.13C241.58 136.43 241.92 136.58 242.36 136.58L242.38 136.6ZM246.34 137.34V133.39H244.71V132.56H248.9V133.39H247.27V137.34H246.34ZM251.24 137.47C250.76 137.47 250.35 137.36 250 137.15C249.65 136.93 249.38 136.64 249.19 136.26C249 135.88 248.91 135.44 248.91 134.95C248.91 134.46 249.01 134.01 249.2 133.64C249.39 133.26 249.67 132.96 250.02 132.75C250.37 132.54 250.78 132.43 251.25 132.43C251.72 132.43 252.14 132.54 252.49 132.75C252.84 132.97 253.11 133.26 253.3 133.64C253.49 134.02 253.59 134.45 253.59 134.95C253.59 135.45 253.49 135.89 253.3 136.27C253.11 136.65 252.84 136.94 252.49 137.16C252.14 137.37 251.73 137.48 251.25 137.48L251.24 137.47ZM251.24 136.6C251.7 136.6 252.04 136.45 252.26 136.14C252.49 135.83 252.6 135.43 252.6 134.94C252.6 134.45 252.48 134.04 252.25 133.74C252.02 133.44 251.68 133.29 251.23 133.29C250.92 133.29 250.66 133.36 250.46 133.5C250.26 133.64 250.11 133.83 250.01 134.08C249.91 134.32 249.86 134.61 249.86 134.93C249.86 135.43 249.98 135.83 250.21 136.13C250.44 136.43 250.78 136.58 251.22 136.58L251.24 136.6Z" fill="#868686"></path> </g> <defs> <linearGradient id="paint0_linear_95_162" x1="13" y1="117.994" x2="151.987" y2="117.994" gradientUnits="userSpaceOnUse"> <stop stop-color="#5ABFCE"></stop> <stop offset="1" stop-color="#3CAFE4"></stop> </linearGradient> <linearGradient id="paint1_linear_95_162" x1="360.124" y1="42" x2="-90.3928" y2="42" gradientUnits="userSpaceOnUse"> <stop stop-color="white"></stop> <stop offset="1" stop-color="#3CAFE4"></stop> </linearGradient> <linearGradient id="paint2_linear_95_162" x1="200" y1="58.4936" x2="242.974" y2="58.4936" gradientUnits="userSpaceOnUse"> <stop stop-color="#2BAB6B"></stop> <stop offset="1" stop-color="#59BFCB"></stop> </linearGradient> <clipPath id="clip0_95_162"> <rect width="272.36" height="158.8" fill="white"></rect> </clipPath> </defs> <!-- Code injected by live-server -->
<script>
	// <![CDATA[  <-- For SVG support
	if ('WebSocket' in window) {
		(function () {
			function refreshCSS() {
				var sheets = [].slice.call(document.getElementsByTagName("link"));
				var head = document.getElementsByTagName("head")[0];
				for (var i = 0; i < sheets.length; ++i) {
					var elem = sheets[i];
					var parent = elem.parentElement || head;
					parent.removeChild(elem);
					var rel = elem.rel;
					if (elem.href && typeof rel != "string" || rel.length == 0 || rel.toLowerCase() == "stylesheet") {
						var url = elem.href.replace(/(&|\?)_cacheOverride=\d+/, '');
						elem.href = url + (url.indexOf('?') >= 0 ? '&' : '?') + '_cacheOverride=' + (new Date().valueOf());
					}
					parent.appendChild(elem);
				}
			}
			var protocol = window.location.protocol === 'http:' ? 'ws://' : 'wss://';
			var address = protocol + window.location.host + window.location.pathname + '/ws';
			var socket = new WebSocket(address);
			socket.onmessage = function (msg) {
				if (msg.data == 'reload') window.location.reload();
				else if (msg.data == 'refreshcss') refreshCSS();
			};
			if (sessionStorage && !sessionStorage.getItem('IsThisFirstTime_Log_From_LiveServer')) {
				console.log('Live reload enabled.');
				sessionStorage.setItem('IsThisFirstTime_Log_From_LiveServer', true);
			}
		})();
	}
	else {
		console.error('Upgrade your browser. This Browser is NOT supported WebSocket for Live-Reloading.');
	}
	// ]]>
</script>
</svg> 